HIERARCHY
ROOT Hips
{
	OFFSET 0.00000 0.00000 0.00000
	CHANNELS 6 Xposition Yposition Zposition Zrotation Yrotation Xrotation 
	JOINT LHipJoint
	{
		OFFSET 0 0 0
		CHANNELS 3 Zrotation Yrotation Xrotation
		JOINT LeftUpLeg
		{
			OFFSET 1.62964 -1.40469 0.78906
			CHANNELS 3 Zrotation Yrotation Xrotation
			JOINT LeftLeg
			{
				OFFSET 2.29640 -6.30932 0.00000
				CHANNELS 3 Zrotation Yrotation Xrotation
				JOINT LeftFoot
				{
					OFFSET 2.29451 -6.30412 0.00000
					CHANNELS 3 Zrotation Yrotation Xrotation
					JOINT LeftToeBase
					{
						OFFSET 0.03611 -0.09921 1.56387
						CHANNELS 3 Zrotation Yrotation Xrotation
						End Site
						{
							OFFSET 0.00000 -0.00000 0.80291
						}
					}
				}
			}
		}
	}
	JOINT RHipJoint
	{
		OFFSET 0 0 0
		CHANNELS 3 Zrotation Yrotation Xrotation
		JOINT RightUpLeg
		{
			OFFSET -1.73712 -1.40469 0.78906
			CHANNELS 3 Zrotation Yrotation Xrotation
			JOINT RightLeg
			{
				OFFSET -2.28137 -6.26801 0.00000
				CHANNELS 3 Zrotation Yrotation Xrotation
				JOINT RightFoot
				{
					OFFSET -2.28681 -6.28298 0.00000
					CHANNELS 3 Zrotation Yrotation Xrotation
					JOINT RightToeBase
					{
						OFFSET -0.15927 -0.43759 1.61103
						CHANNELS 3 Zrotation Yrotation Xrotation
						End Site
						{
							OFFSET -0.00000 -0.00000 0.84630
						}
					}
				}
			}
		}
	}
	JOINT LowerBack
	{
		OFFSET 0 0 0
		CHANNELS 3 Zrotation Yrotation Xrotation
		JOINT Spine
		{
			OFFSET -0.04227 2.04338 -0.00225
			CHANNELS 3 Zrotation Yrotation Xrotation
			JOINT Spine1
			{
				OFFSET -0.02148 2.04482 -0.04273
				CHANNELS 3 Zrotation Yrotation Xrotation
				JOINT Neck
				{
					OFFSET 0 0 0
					CHANNELS 3 Zrotation Yrotation Xrotation
					JOINT Neck1
					{
						OFFSET 0.09180 1.44629 0.19359
						CHANNELS 3 Zrotation Yrotation Xrotation
						JOINT Head
						{
							OFFSET 0.00887 1.40645 0.14750
							CHANNELS 3 Zrotation Yrotation Xrotation
							End Site
							{
								OFFSET -0.00669 1.50671 0.03707
							}
						}
					}
				}
				JOINT LeftShoulder
				{
					OFFSET 0 0 0
					CHANNELS 3 Zrotation Yrotation Xrotation
					JOINT LeftArm
					{
						OFFSET 2.17674 1.86763 -0.06520
						CHANNELS 3 Zrotation Yrotation Xrotation
						JOINT LeftForeArm
						{
							OFFSET 4.65776 -0.00000 0.00000
							CHANNELS 3 Zrotation Yrotation Xrotation
							JOINT LeftHand
							{
								OFFSET 3.55539 -0.00000 0.00000
								CHANNELS 3 Zrotation Yrotation Xrotation
								JOINT LeftFingerBase
								{
									OFFSET 0 0 0
									CHANNELS 3 Zrotation Yrotation Xrotation
									JOINT LeftHandIndex1
									{
										OFFSET 0.70726 -0.00000 0.00000
										CHANNELS 3 Zrotation Yrotation Xrotation
										End Site
										{
											OFFSET 0.57022 -0.00000 0.00000
										}
									}
								}
								JOINT LThumb
								{
									OFFSET 0 0 0
									CHANNELS 3 Zrotation Yrotation Xrotation
									End Site
									{
										OFFSET 0.57892 -0.00000 0.57892
									}
								}
							}
						}
					}
				}
				JOINT RightShoulder
				{
					OFFSET 0 0 0
					CHANNELS 3 Zrotation Yrotation Xrotation
					JOINT RightArm
					{
						OFFSET -2.80694 1.55459 -0.32496
						CHANNELS 3 Zrotation Yrotation Xrotation
						JOINT RightForeArm
						{
							OFFSET -4.71925 -0.00000 -0.00000
							CHANNELS 3 Zrotation Yrotation Xrotation
							JOINT RightHand
							{
								OFFSET -3.56990 -0.00000 0.00000
								CHANNELS 3 Zrotation Yrotation Xrotation
								JOINT RightFingerBase
								{
									OFFSET 0 0 0
									CHANNELS 3 Zrotation Yrotation Xrotation
									JOINT RightHandIndex1
									{
										OFFSET -0.50776 -0.00000 0.00000
										CHANNELS 3 Zrotation Yrotation Xrotation
										End Site
										{
											OFFSET -0.40937 -0.00000 0.00000
										}
									}
								}
								JOINT RThumb
								{
									OFFSET 0 0 0
									CHANNELS 3 Zrotation Yrotation Xrotation
									End Site
									{
										OFFSET -0.41562 -0.00000 0.41562
									}
								}
							}
						}
					}
				}
			}
		}
	}
}
MOTION
Frames: 13
Frame Time: .0083333
8.7882 16.3432 31.4834 0 0 0 0 0 0 -21 0 0 0 0 0 0 0 0 0 0 0 0 0 0 21 0 0 0 0 0 0 0 0 0 0 0 0 0 0 0 0 0 0 0 0 0 0 -16 0 0 21 0 0 11 0 0 0 -8 0 0 0 0 0 0 0 0 0 0 0 0 0 0 0 0 0 0 0 0 8 0 0 0 0 0 0 0 0 0 0 0 0 0 0 0 0 0
8.7882 16.3432 31.4834 178.7520 2.3195 -157.0410 0.0000 0.0000 0.0000 -19.4152 -15.8564 -15.6419 0.1290 2.3151 6.3774 0.2268 1.6884 -9.7787 5.2895 -13.7026 -42.0588 0.0000 0.0000 0.0000 16.1002 15.7467 -16.6869 -0.2351 -3.1206 8.6147 -2.1238 1.1668 -27.2555 -0.9570 6.2295 -17.4517 -6.3583 -1.8100 -27.3149 -0.4904 0.2787 -1.7406 3.2726 0.0178 13.3100 -2.3763 -4.1903 -0.5741 6.2756 -4.7521 -9.5491 2.5447 -2.2797 -2.7374 0.0000 0.0000 0.0000 -86.0315 -2.6192 20.4353 10.9399 -18.1961 -1.7571 -0.0000 -0.0000 11.7691 22.6164 -12.2784 -5.0628 -7.1250 0.0000 -0.0000 -3.2028 16.7267 2.1489 0.0000 0.0000 0.0000 91.7027 -1.5370 10.0749 -16.1373 25.7065 -3.7053 0.0000 0.0000 4.4540 -42.1519 -67.7311 39.9529 7.1250 -0.0000 -0.0000 -171.7297 -13.2203 6.2263
8.7939 16.3296 31.4858 179.4270 2.0239 -157.3090 0.0000 0.0000 0.0000 -18.6268 -15.4847 -15.4875 0.1303 2.3269 6.4100 0.2262 1.4767 -9.6495 5.3815 -13.8010 -42.4459 0.0000 0.0000 0.0000 17.1069 15.6198 -16.2864 -0.2346 -3.1172 8.6052 -2.1368 1.2634 -27.3137 -0.9181 6.1049 -17.0892 -5.6881 -1.6694 -27.0196 -0.2695 0.1699 -1.6495 3.0950 -0.0154 13.2650 -2.4913 -4.2168 -0.5183 6.3099 -4.7724 -9.7243 2.5840 -2.2848 -2.8028 0.0000 -0.0000 0.0000 -86.0971 -2.5985 19.9690 10.6024 -17.6763 -1.6532 -0.0000 -0.0000 12.0866 22.7762 -12.4434 -5.1696 -7.1250 0.0000 -0.0000 -3.0996 16.5337 2.0924 0.0000 -0.0000 0.0000 91.6033 -1.5079 10.1526 -15.9605 25.4671 -3.6290 0.0000 0.0000 3.8970 -6.1248 -52.7026 4.8791 7.1250 -0.0000 -0.0000 -15.6355 10.1636 -166.8566
8.8068 16.3259 31.4753 180.0230 1.1291 -158.0100 0.0000 0.0000 0.0000 -17.8974 -15.1102 -14.8145 0.1305 2.3283 6.4138 0.2340 0.7899 -9.4586 5.3728 -13.7917 -42.4093 0.0000 0.0000 0.0000 18.3032 15.5184 -14.8818 -0.2048 -2.9140 8.0395 -2.1259 0.4272 -27.4860 -0.9034 6.0573 -16.9508 -5.1466 -1.7113 -26.3247 -0.0478 -0.1777 -1.4522 2.8993 -0.1732 13.1471 -2.4331 -4.2989 -0.5476 6.4141 -4.8625 -9.7755 2.6102 -2.3310 -2.8093 0.0000 0.0000 0.0000 -86.0657 -2.5640 19.4138 10.2714 -17.1629 -1.5541 -0.0000 -0.0000 12.4274 22.5689 -12.5318 -5.1531 -7.1250 0.0000 -0.0000 -3.2473 16.4597 2.1977 0.0000 0.0000 0.0000 91.6531 -1.6059 10.1331 -15.8590 25.3290 -3.5854 0.0000 0.0000 3.4146 -7.1614 -53.8325 5.7919 7.1250 -0.0000 -0.0000 -15.2372 8.8869 -166.8118
8.7915 16.3116 31.5036 180.3030 1.6227 -157.1190 0.0000 0.0000 0.0000 -17.4958 -15.1623 -16.0250 0.1395 2.4071 6.6321 0.2355 1.0094 -9.5903 5.3780 -13.7973 -42.4313 0.0000 0.0000 0.0000 18.2595 15.4575 -16.5456 -0.2370 -3.1333 8.6502 -2.1176 1.4708 -27.1313 -0.9200 6.1112 -17.1075 -4.5878 -1.4296 -26.8976 -0.1315 0.1185 -1.7352 2.5986 0.0281 13.0990 -2.4270 -4.2683 -0.5232 6.4527 -4.8301 -9.6667 2.6193 -2.3189 -2.7781 -0.0000 -0.0000 0.0000 -85.9864 -2.5755 19.0138 9.9590 -16.6754 -1.4632 -0.0000 -0.0000 12.5800 22.3595 -12.6159 -5.1339 -7.1250 0.0000 -0.0000 -3.3962 16.3905 2.3039 -0.0000 -0.0000 0.0000 91.7828 -1.6080 9.8828 -15.6885 25.0964 -3.5128 0.0000 0.0000 3.1669 -8.7739 -54.3403 7.1477 7.1250 -0.0000 -0.0000 -14.6194 8.0678 -167.1400
8.7996 16.3170 31.4988 180.5120 0.5621 -157.8210 0.0000 0.0000 0.0000 -17.2047 -15.1816 -15.3586 0.1461 2.4636 6.7887 0.2391 0.3533 -9.3701 5.4252 -13.8472 -42.6288 0.0000 0.0000 0.0000 18.6583 19.7602 -16.2432 -0.5811 -4.8812 13.5699 -2.6806 -1.9669 -31.7194 -0.8741 5.9607 -16.6703 -4.3667 -1.6471 -26.1642 0.0145 -0.3414 -1.5338 2.4607 -0.1954 12.9703 -2.4835 -4.2376 -0.4131 6.4714 -4.7784 -9.8073 2.6430 -2.2920 -2.8470 0.0000 0.0000 0.0000 -85.8985 -2.5477 19.0542 9.6132 -16.1323 -1.3655 -0.0000 -0.0000 12.3496 22.2191 -12.6430 -5.1090 -7.1250 0.0000 -0.0000 -3.4946 16.3756 2.3721 0.0000 0.0000 0.0000 91.8153 -1.7171 9.8853 -15.6007 24.9763 -3.4756 0.0000 0.0000 2.8344 -10.8143 -53.6005 8.7408 7.1250 -0.0000 -0.0000 -13.7691 8.3048 -168.0031
8.7910 16.2898 31.5333 181.6230 0.4240 -157.1820 0.0000 0.0000 0.0000 -15.7109 -14.9819 -16.7386 0.1767 2.7076 7.4657 0.2472 0.1073 -9.4298 5.3187 -13.7340 -42.1821 0.0000 0.0000 0.0000 19.6502 20.3304 -17.2919 -0.6409 -5.1217 14.2560 -1.6360 -4.3459 -26.0542 -2.7227 10.2320 -29.7313 -3.0098 -1.3448 -26.3358 0.2506 -0.3395 -1.7993 1.9519 -0.1003 12.7405 -2.5988 -4.1416 -0.3347 6.5082 -4.6581 -9.7660 2.6759 -2.2328 -2.8507 0.0000 -0.0000 0.0000 -85.7837 -2.4358 19.3791 9.2533 -15.5632 -1.2672 -0.0000 -0.0000 11.8601 22.2653 -12.6602 -5.1276 -7.1250 0.0000 -0.0000 -3.4634 16.3528 2.3525 0.0000 -0.0000 0.0000 91.8414 -1.9418 10.1092 -15.5939 24.9669 -3.4728 0.0000 0.0000 2.0018 -14.1824 -52.2975 11.3069 7.1250 -0.0000 -0.0000 -12.2933 8.7257 -169.4618
8.7798 16.3045 31.5289 180.1100 0.9269 -156.6530 0.0000 0.0000 0.0000 -17.5214 -15.9137 -16.7891 0.1622 2.5947 7.1524 0.2366 0.7448 -9.4893 5.2171 -13.6242 -41.7526 0.0000 0.0000 0.0000 17.4654 20.4850 -17.8187 -0.6178 -5.0304 13.9952 -1.6230 -4.5080 -26.0446 -2.5665 9.9578 -28.8402 -4.4575 -1.6867 -26.9802 -0.1691 -0.2199 -1.8792 2.3565 -0.0980 13.0002 -2.6304 -4.0459 -0.3909 6.4287 -4.5396 -9.7248 2.6502 -2.1704 -2.8333 0.0000 -0.0000 0.0000 -85.8075 -2.4373 19.0647 8.9160 -15.0264 -1.1782 -0.0000 -0.0000 11.7907 22.0952 -12.6596 -5.0842 -7.1250 0.0000 -0.0000 -3.5811 16.3703 2.4314 0.0000 -0.0000 0.0000 91.8306 -1.9807 9.9212 -15.5903 24.9620 -3.4713 0.0000 0.0000 2.3970 -13.8951 -52.7315 11.1374 7.1250 -0.0000 -0.0000 -12.4541 8.3923 -169.2325
8.7789 16.3104 31.5282 179.5010 1.1680 -156.5310 0.0000 0.0000 0.0000 -18.3061 -15.9320 -16.8714 0.1606 2.5818 7.1166 0.2348 0.6985 -9.4327 5.2955 -13.7091 -42.0843 0.0000 0.0000 0.0000 16.6834 20.5904 -17.5865 -0.5612 -4.7983 13.3342 -1.5703 -4.7727 -25.8018 -2.5248 9.8829 -28.5983 -5.0736 -1.8169 -27.1604 -0.3366 -0.1572 -1.8546 2.5442 -0.0984 13.1264 -2.6295 -4.0096 -0.4823 6.3852 -4.4834 -9.7771 2.6331 -2.1370 -2.8378 0.0000 -0.0000 0.0000 -85.8564 -2.5218 18.2524 8.5901 -14.5048 -1.0952 -0.0000 -0.0000 12.0736 21.8705 -12.6434 -5.0211 -7.1250 0.0000 -0.0000 -3.7360 16.4098 2.5338 0.0000 -0.0000 0.0000 91.8134 -2.0040 9.7790 -15.4380 24.7527 -3.4072 0.0000 0.0000 2.3198 -14.4331 -52.4023 11.5257 7.1250 -0.0000 -0.0000 -12.2007 8.5674 -169.5058
8.7816 16.3069 31.5284 179.5030 1.1775 -156.5420 0.0000 0.0000 0.0000 -18.2941 -15.9449 -16.8886 0.1636 2.6060 7.1836 0.2388 0.6814 -9.5025 5.3825 -13.8020 -42.4500 0.0000 0.0000 0.0000 16.7345 20.6039 -17.1405 -0.4973 -4.5210 12.5472 -1.5009 -4.9897 -25.4077 -2.5100 9.8561 -28.5120 -5.0738 -1.8194 -27.1043 -0.3315 -0.1654 -1.8657 2.5468 -0.1011 13.0838 -2.6609 -3.9913 -0.4530 6.3722 -4.4597 -9.8055 2.6358 -2.1244 -2.8537 0.0000 -0.0000 0.0000 -85.8920 -2.4540 17.6790 8.2995 -14.0372 -1.0236 -0.0000 -0.0000 12.0120 21.3092 -12.5868 -4.8586 -7.1250 0.0000 -0.0000 -4.1226 16.5245 2.7871 0.0000 -0.0000 0.0000 91.8051 -2.1165 9.5420 -15.3011 24.5639 -3.3501 0.0000 0.0000 2.5489 -14.4195 -51.9564 11.4472 7.1250 -0.0000 -0.0000 -12.1601 8.9846 -169.6459
8.7844 16.3039 31.5281 179.5370 1.1952 -156.5360 0.0000 0.0000 0.0000 -18.2290 -16.0095 -16.8464 0.1618 2.5919 7.1446 0.2412 0.7407 -9.5749 5.3675 -13.7861 -42.3873 0.0000 0.0000 0.0000 16.8110 20.3037 -16.9557 -0.4495 -4.3016 11.9268 -1.4584 -4.8380 -25.0050 -2.5174 9.8695 -28.5552 -5.0426 -1.8124 -27.0797 -0.3332 -0.1675 -1.8713 2.5260 -0.0997 13.0639 -2.6656 -3.9788 -0.4657 6.3939 -4.4440 -9.7696 2.6423 -2.1173 -2.8395 -0.0000 -0.0000 0.0000 -85.8661 -2.3542 17.0278 8.0690 -13.6646 -0.9684 -0.0000 -0.0000 12.4542 21.1229 -12.7845 -4.8862 -7.1250 0.0000 -0.0000 -4.2590 16.3325 2.8975 -0.0000 -0.0000 0.0000 91.8704 -2.1396 9.0515 -15.1498 24.3544 -3.2875 0.0000 0.0000 3.2558 -13.7689 -51.9789 10.9263 7.1250 -0.0000 -0.0000 -12.4328 9.1216 -169.4369
8.7858 16.3051 31.5283 179.5980 1.2130 -156.4620 0.0000 0.0000 0.0000 -18.1163 -16.0357 -16.9093 0.1601 2.5780 7.1059 0.2447 0.7253 -9.6352 5.2339 -13.6424 -41.8236 0.0000 0.0000 0.0000 17.2391 14.9865 -17.6445 -0.2486 -3.2082 8.8588 -1.2792 -0.7228 -21.6536 -2.7396 10.2610 -29.8262 -4.9781 -1.8074 -27.1759 -0.3175 -0.1774 -1.8502 2.5033 -0.1038 13.1407 -2.6844 -3.9646 -0.5022 6.4116 -4.4177 -9.8026 2.6511 -2.1019 -2.8446 -0.0000 0.0000 0.0000 -85.8772 -2.2910 16.4295 7.9076 -13.4029 -0.9306 -0.0000 -0.0000 12.8634 21.0123 -12.6417 -4.8052 -7.1250 0.0000 -0.0000 -4.3303 16.4946 2.9311 -0.0000 0.0000 0.0000 91.8829 -2.0614 8.6337 -15.0030 24.1502 -3.2271 0.0000 0.0000 3.8428 -13.3113 -52.6356 10.6499 7.1250 -0.0000 -0.0000 -12.6830 8.6212 -169.0834
8.7874 16.3069 31.5297 179.6830 1.2092 -156.4100 0.0000 0.0000 0.0000 -17.9840 -16.0145 -17.0322 0.1637 2.6066 7.1854 0.2490 0.6901 -9.7008 5.2420 -13.6513 -41.8580 0.0000 0.0000 0.0000 17.3463 14.7384 -17.8744 -0.2544 -3.2451 8.9620 -1.2882 -0.3842 -21.6051 -2.7256 10.2370 -29.7476 -4.9095 -1.8041 -27.2140 -0.2785 -0.1969 -1.8543 2.5014 -0.1103 13.1575 -2.7145 -3.9369 -0.5221 6.4272 -4.3777 -9.8094 2.6607 -2.0804 -2.8445 0.0000 -0.0000 0.0000 -85.9533 -2.2313 15.4908 7.6966 -13.0599 -0.8823 -0.0000 -0.0000 13.7658 21.2161 -12.5462 -4.8202 -7.1250 0.0000 -0.0000 -4.1856 16.5765 2.8252 0.0000 -0.0000 0.0000 91.8528 -2.0165 8.2838 -14.8103 23.8812 -3.1487 0.0000 0.0000 4.1482 -13.0445 -52.5324 10.4197 7.1250 -0.0000 -0.0000 -12.7827 8.7807 -169.0346
